<svg version="1.0" xmlns="http://www.w3.org/2000/svg"
 width="300.000000pt" height="300.000000pt" viewBox="0 0 300.000000 300.000000"
 preserveAspectRatio="xMidYMid meet">
<g transform="translate(0.000000,300.000000) scale(0.100000,-0.100000)"
fill="#000000" stroke="none">
<path d="M1292 2699 c-99 -15 -268 -76 -367 -131 -205 -116 -345 -260 -441
-453 -69 -140 -88 -223 -87 -390 0 -123 3 -151 27 -230 52 -171 144 -335 286
-510 140 -172 576 -597 655 -638 28 -15 59 -21 105 -22 97 0 136 27 393 276
572 555 731 816 714 1171 -6 139 -23 205 -86 333 -77 156 -216 314 -363 413
-74 51 -245 129 -343 158 -79 23 -111 27 -260 30 -93 1 -198 -2 -233 -7z m413
-43 c217 -47 399 -144 552 -294 135 -133 227 -287 268 -447 25 -99 24 -266 -3
-370 -63 -246 -205 -441 -622 -855 -273 -272 -336 -321 -416 -328 -98 -8 -137
21 -479 361 -345 342 -486 550 -554 818 -82 324 63 688 364 916 83 63 221 133
333 169 160 51 399 64 557 30z"/>
<path d="M1320 2566 c-400 -73 -721 -362 -787 -708 -20 -107 -13 -255 18 -353
57 -185 176 -362 386 -578 130 -134 145 -145 179 -127 13 8 34 29 45 47 12 19
27 39 33 46 7 7 24 31 38 53 39 61 192 207 293 279 84 60 287 185 382 236 63
33 151 106 173 142 31 50 26 90 -15 136 -20 22 -56 48 -80 58 -25 10 -45 22
-45 26 0 5 -3 6 -8 3 -4 -2 -18 2 -32 10 l-25 14 30 -6 c17 -4 35 -10 40 -14
6 -5 33 -11 60 -15 28 -4 55 -11 60 -15 6 -4 21 -11 35 -15 14 -4 48 -23 76
-41 100 -63 92 -138 -25 -245 -36 -34 -97 -82 -136 -106 -102 -66 -262 -192
-354 -279 -177 -166 -270 -348 -258 -507 7 -106 57 -156 127 -127 40 16 541
513 642 636 263 320 328 546 239 824 -63 197 -176 344 -359 466 -93 63 -175
100 -307 139 -111 33 -306 42 -425 21z m360 -41 c298 -61 547 -250 661 -500
91 -202 95 -389 10 -577 -88 -197 -254 -388 -738 -851 -142 -136 -174 -130
-174 32 0 224 175 444 571 716 202 139 272 216 274 299 1 54 -21 88 -86 132
-51 34 -166 75 -280 98 -72 15 -382 56 -540 71 -38 4 -68 11 -68 15 0 18 42
30 172 49 73 11 142 22 153 26 12 4 1 -11 -25 -34 -47 -43 -45 -49 11 -29 39
13 183 113 247 172 23 21 42 36 42 33 0 -2 7 -20 15 -40 14 -35 14 -36 -25
-85 -41 -51 -51 -78 -26 -69 19 8 79 24 154 42 63 15 64 15 95 -9 39 -29 117
-69 123 -63 3 2 -19 28 -48 58 -29 30 -72 75 -96 102 -47 52 -63 57 -84 26
-13 -21 -15 -20 -53 32 -22 29 -47 57 -56 62 -19 12 -27 7 -154 -105 -83 -74
-90 -78 -136 -78 -58 0 -269 -27 -321 -41 -21 -5 -44 -19 -52 -30 -13 -19 -18
-20 -73 -9 -137 27 -154 36 -110 58 27 14 263 42 355 42 37 0 84 3 105 7 83
13 9 18 -200 12 -157 -4 -234 -11 -274 -22 -68 -20 -88 -39 -68 -64 13 -15 11
-16 -16 -9 -34 9 -65 33 -65 51 0 19 67 42 205 74 121 27 123 27 165 9 24 -10
44 -17 45 -16 4 4 -206 231 -222 241 -20 12 -48 -9 -166 -122 -56 -53 -113
-105 -127 -114 -13 -9 -19 -17 -12 -17 21 0 109 48 144 78 18 16 44 32 58 35
14 3 40 24 58 47 19 22 37 40 41 40 9 0 31 -45 31 -64 0 -7 -18 -34 -40 -59
-34 -38 -52 -49 -122 -71 -90 -30 -148 -61 -148 -80 0 -19 31 -44 77 -60 64
-23 178 -43 478 -86 465 -67 613 -102 675 -160 70 -65 21 -124 -225 -269 -388
-230 -538 -358 -677 -579 -39 -61 -42 -63 -58 -45 -9 10 -69 73 -133 140 -249
262 -359 453 -387 678 -28 219 67 458 253 632 85 80 136 114 249 168 195 94
412 122 618 80z m-490 -320 c17 -20 5 -33 -39 -41 l-33 -7 16 32 c18 34 37 39
56 16z m876 -109 c8 -8 14 -17 14 -19 0 -7 -120 -30 -126 -24 -14 13 18 46 49
50 17 2 36 5 40 5 5 1 15 -4 23 -12z"/>
<path d="M1283 2226 l-37 -34 32 -7 c18 -3 58 -22 89 -41 82 -49 86 -42 9 16
-36 28 -66 52 -66 54 0 2 6 6 14 9 8 3 31 -7 50 -22 19 -16 48 -33 63 -38 15
-6 58 -22 96 -37 37 -14 77 -26 90 -26 21 1 21 2 -5 15 -14 8 -66 31 -113 50
-48 19 -103 48 -121 65 -19 16 -41 30 -49 30 -9 0 -32 -15 -52 -34z"/>
<path d="M1933 1454 c-30 -30 -22 -46 10 -17 12 11 31 25 42 31 19 11 19 11
-3 12 -13 0 -34 -12 -49 -26z"/>
<path d="M1962 1419 c-18 -12 -31 -23 -29 -26 7 -7 52 14 66 31 19 22 2 20
-37 -5z"/>
<path d="M1735 1319 c-48 -42 -44 -58 4 -20 38 30 71 40 71 21 0 -5 -20 -21
-45 -36 -51 -29 -54 -34 -24 -34 24 0 82 55 77 72 -2 6 -14 15 -26 19 -17 7
-30 2 -57 -22z"/>
<path d="M1555 1192 c-35 -22 -58 -48 -53 -60 1 -6 27 10 56 34 54 44 52 59
-3 26z"/>
<path d="M1567 1129 c-34 -33 -43 -46 -27 -39 30 15 69 49 81 73 16 29 0 19
-54 -34z"/>
<path d="M1340 941 c-48 -50 -64 -92 -45 -118 13 -17 14 -17 9 3 -7 27 81 148
102 140 9 -3 12 -1 9 4 -12 20 -39 9 -75 -29z"/>
<path d="M1367 880 c-31 -45 -43 -70 -34 -70 20 0 97 107 97 135 0 18 -21 -4
-63 -65z"/>
<path d="M1248 714 c-16 -16 -8 -82 13 -105 11 -13 17 -17 12 -9 -4 8 -10 39
-13 68 -3 30 -8 50 -12 46z"/>
<path d="M1290 678 c0 -24 5 -50 10 -58 7 -11 10 0 10 37 0 28 -4 55 -10 58
-6 4 -10 -11 -10 -37z"/>
</g>
</svg>
