<svg xmlns="http://www.w3.org/2000/svg" width="128" height="128" fill="#fff">
  <path fill="#151515" d="M0 0h128v128H0z"/>
  <path d="m 61.849458,35.354075 c -1.15005,-0.57545 -2.9155,-2.1794 -3.4714,-2.6537 -0.55505,-0.4743 -1.34215,-0.50405 -2.1386,0.3026 -0.7973,0.8075 -2.22955,2.0281 -2.22955,2.0281 l 0.69955,0.71315 c 0,0 1.0625,-0.27625 1.77565,0.09435 0.71315,0.3706 3.47735,2.20915 5.7885,3.0974 -1.64475,-1.33195 -5.88285,-4.5305 -5.88285,-4.5305 0,0 0.646,-0.97835 1.47305,-0.6154 0.82705,0.3638 1.8564,2.0179 3.98565,2.754 2.12925,0.7361 3.86495,1.13985 4.95465,1.67535 1.0897,0.53465 2.1692,0.98855 2.1692,0.98855 h 1.79605 c 0,0 -3.33965,-1.79605 -4.60105,-2.24995 -1.2614,-0.4539 -3.16795,-1.0285 -4.31885,-1.60395 z m 30.93405,-12.95485 c -8.1549,-5.8973 -18.12285,-9.36445 -28.88555,-9.36445 -0.15895,0 -0.31875,0.0017 -0.4777,0.0034 -0.15895,-0.0017 -0.3179,-0.0034 -0.4777,-0.0034 -10.76355,0 -20.0498,3.68815 -28.2047,9.58545 -12.74405,9.21655 -19.99795,23.5297 -16.60815,39.87605 2.82455,13.61955 13.0747,24.81235 22.27255,34.54825 3.4561,3.658405 6.90625,6.615555 9.7869,9.423945 5.04645,4.91981 8.5969,8.49576 13.2311,8.49576 4.6342,0 8.18465,-3.57595 13.2311,-8.49576 2.88065,-2.80839 6.33165,-5.76554 9.7869,-9.423945 9.19785,-9.7359 20.048952,-20.81905 23.287452,-34.3468 3.8743,-16.18485 -4.199,-31.0828 -16.943052,-40.29935 z m -38.4421,76.05715 c 8.5e-4,-0.30515 0.2482,-0.5525 0.55335,-0.5525 8.5e-4,0 8.5e-4,0 8.5e-4,0 0.30515,8.5e-4 0.5525,0.2482 0.5525,0.5542 0,0.0221 -0.0017,2.205755 0.19125,3.452705 0.0085,0.0536 0.0085,0.1071 0.0017,0.15894 -0.07565,-0.074 -0.1513,-0.1479 -0.22695,-0.22184 l -0.36975,-0.36041 c -0.20655,-0.20145 -0.41395,-0.40119 -0.62305,-0.60095 -0.08075,-1.161095 -0.0799,-2.362995 -0.0799,-2.430995 z m 1.80455,-5.54965 3.67285,-5.26065 c 0.1751,-0.25075 0.51935,-0.31195 0.7701,-0.13685 0.25075,0.1751 0.31195,0.51935 0.13685,0.7701 l -3.67285,5.26065 c -0.1071,0.15385 -0.27965,0.23715 -0.45475,0.23715 -0.10965,0 -0.22015,-0.0323 -0.3162,-0.09945 -0.2499,-0.1751 -0.31195,-0.51935 -0.13685,-0.7701 z m 46.817152,-31.82825 c -1.1713,4.8909 -3.714502,9.94755 -7.775802,15.4581 -3.8029,5.1595 -8.3657,9.9824 -12.7772,14.6455 -0.34425,0.3638 -0.68595,0.7259 -1.02595,1.08545 -2.0791,2.20065 -4.18625,4.15735 -6.22455,6.0486 -1.1747,1.09055 -2.28395,2.119905 -3.36175,3.171355 l -0.36975,0.3604 c -2.40635,2.3477 -4.58065,4.4676 -6.2441,5.4995 -0.9112,0.56525 -2.1148,0.15725 -2.5041,-0.84235 -1.105,-2.84495 -1.1475,-6.21095 0.47175,-11.479255 2.3817,-7.74945 11.58295,-15.17505 16.3863,-18.8479 4.8025,-3.67285 14.56985,-10.04955 17.07225,-13.6017 2.5024,-3.5513 1.81645,-7.26495 -2.1794,-9.72655 -3.99585,-2.4616 -9.00065,-3.52495 -13.4402,-4.30525 -4.43955,-0.7803 -13.6017,-2.2338 -20.7451,-2.71745 -1.3022,-0.0884 -2.57295,-0.20655 -3.7876,-0.3434 -0.15555,-0.3519 -0.07055,-0.7242 0.4114,-1.00215 0.7939,-0.4573 2.2066,-0.7939 5.0184,-1.2376 2.8118,-0.4437 9.40355,-1.62775 9.40355,-1.62775 0,0 -2.6775,2.87895 -4.3996,3.6329 1.78925,-0.2686 4.30525,-1.19765 4.30525,-1.19765 0,0 4.8161,-3.33625 6.3631,-4.57385 1.547,-1.2376 3.4306,-2.516 4.3996,-3.8607 l 1.2648,3.34985 c 0,0 -2.9869,3.51135 -3.33625,5.39495 2.26015,-1.1305 7.91095,-2.11225 9.87445,-2.56955 3.0804,2.3817 6.65975,3.49775 6.65975,3.49775 0,0 -6.75325,-7.39925 -7.4936,-8.17955 -0.7395,-0.7803 -1.4127,-0.6188 -2.0179,-0.0136 -0.6052,0.6052 -0.53805,1.62775 -0.53805,1.62775 0,0 -2.6503,-3.53855 -3.68645,-4.8025 -1.03615,-1.2648 -1.6813,-1.0625 -2.6503,0 -0.969,1.0625 -8.0852,7.3049 -8.0852,7.3049 0,0 -9.4639,0.86785 -12.9761,1.2512 -3.11865,0.34 -5.3142,0.7293 -5.3839,2.635 -4.06045,-0.59415 -7.1128,-1.3362 -7.9747,-1.7272 -1.292,-0.58565 0.07395,-1.5674 5.05155,-2.23975 4.9776,-0.6732 16.8164,-1.2512 16.8164,-1.2512 l -4.0222,-2.12585 2.58315,1.8972 c 0,0 -8.2603,-0.1751 -13.4266,-0.0136 -5.1663,0.1615 -7.7894,0.86785 -9.3636,1.63455 -1.5742,0.7667 -1.5742,1.47305 -0.84745,2.44205 -4.48035,-1.49345 -3.8743,-2.6843 -2.42165,-3.32945 1.4535,-0.646 9.9688,-2.42165 9.9688,-2.42165 l 2.9869,-0.82705 4.7022,1.8768 c 0,0 -9.15195,-9.45455 -9.8073,-10.2612 -0.6562,-0.8075 -1.4229,-0.7871 -2.12925,-0.1411 -0.70635,0.646 -4.692,4.1667 -7.25475,6.7507 -2.56275,2.58315 -4.5407,3.8947 -4.5407,3.8947 l 2.74465,-1.0897 3.8743,-2.28055 1.17045,-1.59375 1.3719,0.22185 4.17775,-4.11655 1.4127,3.20875 c 0,0 -1.4331,1.615 -2.5432,2.8254 -1.1101,1.2104 -1.7153,1.77565 -4.7022,2.5024 -2.9869,0.72675 -5.99335,2.0383 -6.0741,3.3099 -0.0204,1.81645 3.7332,2.86535 7.87015,3.81395 4.13695,0.9486 18.122,2.8254 26.71805,3.99585 8.59605,1.17045 15.19545,3.16795 17.9401,5.287 2.74465,2.11905 0.38335,4.78975 -3.00645,7.3185 -3.3898,2.5296 -10.9242,6.32315 -19.3732,11.97395 -7.91605,5.29465 -13.6357,11.9357 -18.1985,19.5024 -0.61285,-0.6086 -1.2257,-1.2325 -1.836,-1.8785 -4.68095,-4.95465 -9.1902,-9.83535 -12.9132,-15.0722 -4.0494,-5.69585 -6.53735,-10.96585 -7.60495,-16.1126 -1.33705,-6.44555 -0.72845,-12.6344 1.8088,-18.3957 1.20615,-2.7387 2.84665,-5.35755 4.87645,-7.786 2.0315,-2.4293 4.44975,-4.66565 7.18845,-6.64615 7.69165,-5.5641 15.5839,-8.26795 24.12895,-8.26795 0.13685,0 0.27455,0.0017 0.4114,0.0026 0.0221,8.5e-4 0.0442,8.5e-4 0.0663,8.5e-4 0.0221,0 0.0442,0 0.0663,-8.5e-4 0.13685,-0.0017 0.2737,-0.0026 0.4114,-0.0026 8.95305,0 17.5321,2.78205 24.8098,8.04525 5.59555,4.04685 9.89825,9.1545 12.444852,14.7713 1.2971,2.8611 2.11735,5.8242 2.43865,8.8077 0.3366,3.1297 0.12495,6.31465 -0.62815,9.4639 z m -37.967802,19.9325 3.5785,-3.06765 c 0.1989,-0.17085 0.4981,-0.1479 0.66895,0.051 0.17085,0.1989 0.1479,0.4981 -0.051,0.66895 l -3.5785,3.06765 c -0.08925,0.0765 -0.1989,0.1139 -0.30855,0.1139 -0.13345,0 -0.26605,-0.0561 -0.3604,-0.16575 -0.17085,-0.1989 -0.1479,-0.4981 0.051,-0.66895 z m 8.46345,-6.87905 3.2555,-2.0723 c 0.20825,-0.1326 0.48535,-0.0714 0.6188,0.1377 0.13345,0.2091 0.0714,0.48535 -0.1377,0.6188 l -3.2555,2.0723 c -0.0748,0.0476 -0.1581,0.0697 -0.24055,0.0697 -0.1479,0 -0.29325,-0.0731 -0.37825,-0.2074 -0.1326,-0.2091 -0.0714,-0.48535 0.1377,-0.6188 z m 9.1953,-5.89135 2.5296,-1.8836 c 0.1632,-0.12155 0.3944,-0.08755 0.51595,0.07565 0.12155,0.1632 0.08755,0.3944 -0.07565,0.51595 l -2.5296,1.8836 c -0.0663,0.0493 -0.14365,0.0731 -0.22015,0.0731 -0.11305,0 -0.22355,-0.051 -0.2958,-0.14875 -0.12155,-0.16405 -0.0884,-0.39525 0.07565,-0.5168 z m 10.1337,-11.5736 c -0.22015,-0.88655 -0.6698,-1.5504 -1.26565,-1.87 -0.12835,-0.06885 -0.1768,-0.22865 -0.10795,-0.35615 0.06885,-0.12835 0.22865,-0.1768 0.35615,-0.10795 0.7293,0.39015 1.27245,1.17385 1.52915,2.2066 0.2295,0.9231 0.19465,1.9465 -0.09435,2.737 -0.0391,0.1071 -0.14025,0.1734 -0.24735,0.1734 -0.02975,0 -0.06035,-0.0051 -0.0901,-0.01615 -0.13685,-0.05015 -0.2074,-0.20145 -0.15725,-0.33745 0.25415,-0.69615 0.28305,-1.60395 0.0782,-2.4293 z m -1.3668,5.0456 c 0.1428,-0.1241 0.3587,-0.10965 0.4828,0.03315 0.1241,0.1428 0.10965,0.3587 -0.03315,0.4828 l -1.6677,1.4535 c -0.0646,0.05695 -0.1445,0.08415 -0.22525,0.08415 -0.09605,0 -0.1904,-0.03995 -0.2584,-0.1173 -0.1241,-0.1428 -0.10965,-0.3587 0.03315,-0.4828 z m -3.21555,-9.80815 c -0.0204,0.06885 -0.0833,0.11475 -0.15215,0.11475 -0.01445,0 -0.0289,-0.0025 -0.0442,-0.0059 l -1.19085,-0.34255 c -0.08415,-0.02465 -0.1326,-0.1122 -0.10795,-0.1955 0.0238,-0.08415 0.11135,-0.1326 0.1955,-0.10795 l 1.19085,0.34255 c 0.08415,0.0238 0.1326,0.1122 0.10795,0.1955 z m -5.2411,-1.4195 c -0.0076,0.0374 -0.0408,0.0629 -0.07735,0.0629 -0.006,0 -0.01105,-8.5e-4 -0.01615,-0.0017 l -1.8428,-0.39015 c -0.0425,-0.0093 -0.0697,-0.051 -0.0612,-0.0935 0.0093,-0.0425 0.051,-0.0697 0.0935,-0.0612 l 1.8428,0.39015 c 0.04335,0.0085 0.0697,0.051 0.0612,0.0935 z m -5.0711,-1.0659 c -0.0068,0.0391 -0.03995,0.06545 -0.0782,0.06545 -0.0042,0 -0.0085,-8.5e-4 -0.01275,-0.0017 l -1.4399,-0.24225 c -0.04335,-0.0076 -0.07225,-0.0476 -0.0646,-0.09095 0.0076,-0.04335 0.04845,-0.07225 0.09095,-0.0646 l 1.4399,0.24225 c 0.04335,0.0076 0.0714,0.04845 0.0646,0.0918 z"/>
</svg>
