<svg xmlns="http://www.w3.org/2000/svg" width="2500" height="2500" fill="#fff">
  <path fill="#151515" d="M0 0h2500v2500H0z"/>
  <path d="M1911.39,294.11C1724.01,158.6,1494.97,78.94,1247.65,78.94c-3.66,0-7.32,0.03-10.97,0.07
		c-3.66-0.03-7.31-0.07-10.97-0.07c-247.32,0-460.71,84.75-648.09,220.26c-292.84,211.78-459.52,540.67-381.62,916.26
		c64.91,312.95,300.43,570.13,511.77,793.85c79.41,84.06,158.7,152.02,224.89,216.55c115.96,113.04,197.53,195.22,304.03,195.22
		s188.07-82.17,304.03-195.22c66.19-64.53,145.48-132.48,224.89-216.55c211.34-223.71,460.69-478.38,535.1-789.21
		C2389.73,848.21,2204.23,505.89,1911.39,294.11z M1028.06,2041.75c0.01-7.01,5.7-12.69,12.71-12.69c0.01,0,0.01,0,0.02,0
		c7.02,0.01,12.7,5.71,12.69,12.73c0,0.5-0.03,50.68,4.4,79.33c0.19,1.24,0.19,2.47,0.03,3.66c-1.74-1.69-3.47-3.39-5.22-5.09
		l-8.49-8.28c-4.74-4.62-9.51-9.22-14.31-13.81C1028.04,2070.92,1028.06,2043.31,1028.06,2041.75z M1069.52,1914.23l84.39-120.87
		c4.02-5.76,11.94-7.17,17.7-3.15c5.76,4.02,7.17,11.94,3.15,17.7l-84.39,120.87c-2.47,3.54-6.42,5.44-10.44,5.44
		c-2.51,0-5.05-0.74-7.27-2.29C1066.91,1927.91,1065.5,1919.99,1069.52,1914.23z M2145.28,1182.88
		c-26.91,112.39-85.35,228.58-178.67,355.2c-87.38,118.56-192.22,229.37-293.6,336.53c-7.91,8.36-15.77,16.67-23.58,24.94
		c-47.78,50.57-96.2,95.52-143.02,138.99c-26.99,25.06-52.49,48.72-77.25,72.87l-8.49,8.28c-55.3,53.94-105.25,102.66-143.48,126.37
		c-20.94,12.99-48.6,3.61-57.53-19.36c-25.4-65.38-26.36-142.71,10.84-263.76c54.72-178.06,266.16-348.7,376.52-433.09
		c110.36-84.39,334.79-230.92,392.29-312.53c57.5-81.61,41.73-166.93-50.08-223.5s-206.81-80.99-308.82-98.92
		c-102.01-17.93-312.53-51.32-476.68-62.44c-29.92-2.03-59.12-4.74-87.04-7.89c-3.57-8.09-1.63-16.64,9.45-23.02
		c18.24-10.51,50.7-18.24,115.31-28.44c64.61-10.2,216.08-37.4,216.08-37.4s-61.52,66.15-101.09,83.47
		c41.11-6.18,98.92-27.51,98.92-27.51s110.67-76.66,146.22-105.1c35.55-28.44,78.83-57.81,101.09-88.72l29.06,76.97
		c0,0-68.63,80.68-76.66,123.96c51.93-25.97,181.77-48.53,226.9-59.04c70.79,54.72,153.02,80.37,153.02,80.37
		s-155.18-170.02-172.19-187.95c-17-17.93-32.46-14.22-46.37-0.31c-13.91,13.91-12.37,37.4-12.37,37.4s-60.9-81.3-84.7-110.36
		c-23.8-29.06-38.64-24.42-60.9,0s-185.79,167.86-185.79,167.86s-217.47,19.94-298.16,28.75c-71.66,7.82-122.1,16.75-123.71,60.55
		c-93.31-13.65-163.43-30.7-183.25-39.69c-29.68-13.45,1.7-36.01,116.08-51.47c114.38-15.46,386.41-28.75,386.41-28.75l-92.43-48.84
		l59.35,43.59c0,0-189.81-4.02-308.51-0.31c-118.71,3.71-178.99,19.94-215.15,37.56c-36.17,17.62-36.17,33.85-19.48,56.11
		c-102.94-34.31-89.03-61.67-55.64-76.51c33.39-14.84,229.07-55.64,229.07-55.64l68.63-19.01l108.04,43.12
		c0,0-210.29-217.24-225.36-235.79c-15.07-18.55-32.69-18.08-48.92-3.25s-107.81,95.75-166.7,155.11
		c-58.89,59.35-104.33,89.49-104.33,89.49l63.06-25.04l89.03-52.4l26.89-36.63l31.53,5.1l95.99-94.59l32.46,73.73
		c0,0-32.92,37.1-58.43,64.92c-25.5,27.82-39.41,40.81-108.04,57.5c-68.63,16.69-137.72,46.83-139.57,76.05
		c-0.46,41.73,85.78,65.84,180.84,87.64s416.4,64.92,613.93,91.81s349.16,72.8,412.23,121.49c63.06,48.69,8.81,110.05-69.09,168.17
		c-77.9,58.12-251.01,145.29-445.15,275.13c-181.9,121.66-313.33,274.25-418.17,448.12c-14.08-13.98-28.16-28.33-42.18-43.17
		c-107.55-113.85-211.17-226-296.72-346.32c-93.05-130.87-150.21-251.98-174.74-370.23c-30.72-148.1-16.73-290.31,41.56-422.7
		c27.71-62.92,65.41-123.11,112.05-178.9c46.67-55.82,102.25-107.2,165.17-152.71C848,300.89,1029.35,238.76,1225.7,238.76
		c3.15,0,6.3,0.03,9.45,0.06c0.51,0.01,1.02,0.01,1.53,0.01s1.02,0,1.53-0.01c3.15-0.03,6.29-0.06,9.45-0.06
		c205.72,0,402.86,63.92,570.08,184.86c128.57,92.98,227.45,210.35,285.95,339.42c29.8,65.74,48.65,133.83,56.03,202.38
		C2167.46,1037.34,2162.6,1110.51,2145.28,1182.88z M1272.86,1640.89l82.23-70.48c4.57-3.92,11.45-3.39,15.37,1.18
		c3.92,4.57,3.39,11.45-1.18,15.37l-82.23,70.48c-2.05,1.76-4.58,2.62-7.09,2.62c-3.07,0-6.12-1.29-8.28-3.8
		C1267.76,1651.69,1268.29,1644.81,1272.86,1640.89z M1467.33,1482.83l74.81-47.61c4.79-3.05,11.16-1.64,14.21,3.16
		s1.64,11.16-3.16,14.21l-74.81,47.61c-1.71,1.09-3.63,1.61-5.52,1.61c-3.4,0-6.73-1.68-8.69-4.77
		C1461.12,1492.24,1462.53,1485.88,1467.33,1482.83z M1678.62,1347.46l58.12-43.28c3.75-2.8,9.06-2.02,11.86,1.74
		c2.8,3.75,2.02,9.06-1.74,11.86l-58.12,43.28c-1.52,1.13-3.3,1.68-5.05,1.68c-2.59,0-5.14-1.18-6.8-3.41
		C1674.09,1355.56,1674.86,1350.25,1678.62,1347.46z M1911.47,1081.52c-5.06-20.37-15.39-35.63-29.09-42.96
		c-2.95-1.58-4.06-5.25-2.48-8.19c1.58-2.95,5.25-4.06,8.19-2.48c16.75,8.97,29.23,26.98,35.13,50.71
		c5.27,21.22,4.47,44.73-2.16,62.89c-0.9,2.46-3.22,3.98-5.69,3.98c-0.69,0-1.39-0.12-2.08-0.37c-3.14-1.15-4.76-4.62-3.61-7.76
		C1915.52,1121.35,1916.18,1100.48,1911.47,1081.52z M1880.06,1197.46c3.28-2.85,8.25-2.51,11.1,0.77c2.85,3.28,2.51,8.25-0.77,11.1
		l-38.33,33.39c-1.49,1.3-3.33,1.94-5.17,1.94c-2.2,0-4.38-0.91-5.94-2.7c-2.85-3.28-2.51-8.25,0.77-11.1L1880.06,1197.46z
		 M1806.18,972.09c-0.46,1.59-1.91,2.63-3.49,2.63c-0.33,0-0.67-0.05-1.01-0.14l-27.36-7.88c-1.93-0.56-3.04-2.57-2.48-4.5
		c0.55-1.93,2.56-3.04,4.5-2.48l27.36,7.88C1805.63,968.15,1806.74,970.17,1806.18,972.09z M1685.76,939.47
		c-0.18,0.85-0.94,1.44-1.77,1.44c-0.13,0-0.25-0.01-0.38-0.04l-42.35-8.96c-0.98-0.21-1.61-1.17-1.4-2.15
		c0.21-0.98,1.18-1.61,2.15-1.4l42.35,8.96C1685.35,937.52,1685.97,938.49,1685.76,939.47z M1569.24,914.97
		c-0.15,0.89-0.92,1.51-1.79,1.51c-0.1,0-0.2-0.01-0.3-0.03l-33.08-5.56c-0.99-0.17-1.66-1.1-1.49-2.09
		c0.17-0.99,1.11-1.66,2.09-1.49l33.08,5.56C1568.74,913.05,1569.4,913.98,1569.24,914.97z"/>
	<path d="M1200.59,591.78c-26.43-13.22-67-50.08-79.76-60.98c-12.75-10.9-30.84-11.59-49.15,6.96
		c-18.32,18.55-51.24,46.6-51.24,46.6l16.07,16.38c0,0,24.42-6.34,40.81,2.16s79.91,50.77,133,71.18
		c-37.79-30.6-135.17-104.1-135.17-104.1s14.84-22.49,33.85-14.14c19.01,8.35,42.66,46.37,91.58,63.29
		c48.92,16.92,88.8,26.2,113.84,38.49c25.04,12.29,49.85,22.72,49.85,22.72h41.27c0,0-76.74-41.27-105.72-51.7
		C1270.84,618.21,1227.02,605,1200.59,591.78z"/>
</svg>
